<svg id="Capa_1" data-name="Capa 1" xmlns="http://www.w3.org/2000/svg" viewBox="0 0 225 225"><defs><style>.cls-1{fill:#636162;}.cls-2{fill:#ff4040;}.cls-2,.cls-3{fill-rule:evenodd;}.cls-3{fill:#bfb9b9;}</style></defs><title>app-icon</title><g id="Capa_1-2" data-name="Capa 1-2"><rect class="cls-1" x="0.5" y="0.5" width="224" height="224" rx="33.26"/><path class="cls-2" d="M25.32,114.75v14.31H17.5V95.94h7.82v12.84H39.54V95.94h7.59v33.12H39.54V114.75H25.32"/><path class="cls-3" d="M157,124.65c4.09,0,9.85-2.42,9.85-12.15S161,100.35,157,100.35s-9.85,2.42-9.85,12.15S152.86,124.65,157,124.65Zm0-30.45c4.8,0,17.43,2,17.43,18.3S161.75,130.8,157,130.8s-17.43-2-17.43-18.3S152.15,94.2,157,94.2Zm-17.49,16.47H123.08V117h8.35c-1.49,6-6,7.62-9.34,7.62-4.09,0-9.85-2.42-9.85-12.15s5.76-12.15,9.85-12.15c3.38,0,7.9,1.65,9.36,7.71h7.71c-2.07-12.25-12.75-13.86-17.07-13.86-4.8,0-17.43,2-17.43,18.3s12.63,18.3,17.43,18.3,17.43-2,17.43-18.3a18.14,18.14,0,0,0-.06-1.83"/><path class="cls-2" d="M78.51,95.94v.77a14.42,14.42,0,0,1,5.85,5.34h4.2v27h8v-27h9.82V95.94H78.51"/><path class="cls-2" d="M66.31,124.65c4.09,0,9.85-2.42,9.85-12.15s-5.76-12.15-9.85-12.15-9.85,2.42-9.85,12.15S62.22,124.65,66.31,124.65Zm0-30.45c4.8,0,17.43,2,17.43,18.3s-12.63,18.3-17.43,18.3-17.43-2-17.43-18.3S61.51,94.2,66.31,94.2Z"/><path class="cls-3" d="M178,95.94a20.87,20.87,0,0,1,7.7,15.83c0,10.16-7.78,17.29-7.78,17.29l29.63-16.92L178,95.94"/></g></svg>